ffmpeg version 4.2.4-1ubuntu0.1 Copyright (c) 2000-2020 the FFmpeg developers
  built with gcc 9 (Ubuntu 9.3.0-10ubuntu2)
  configuration: --prefix=/usr --extra-version=1ubuntu0.1 --toolchain=hardened --libdir=/usr/lib/x86_64-linux-gnu --incdir=/usr/include/x86_64-linux-gnu --arch=amd64 --enable-gpl --disable-stripping --enable-avresample --disable-filter=resample --enable-avisynth --enable-gnutls --enable-ladspa --enable-libaom --enable-libass --enable-libbluray --enable-libbs2b --enable-libcaca --enable-libcdio --enable-libcodec2 --enable-libflite --enable-libfontconfig --enable-libfreetype --enable-libfribidi --enable-libgme --enable-libgsm --enable-libjack --enable-libmp3lame --enable-libmysofa --enable-libopenjpeg --enable-libopenmpt --enable-libopus --enable-libpulse --enable-librsvg --enable-librubberband --enable-libshine --enable-libsnappy --enable-libsoxr --enable-libspeex --enable-libssh --enable-libtheora --enable-libtwolame --enable-libvidstab --enable-libvorbis --enable-libvpx --enable-libwavpack --enable-libwebp --enable-libx265 --enable-libxml2 --enable-libxvid --enable-libzmq --enable-libzvbi --enable-lv2 --enable-omx --enable-openal --enable-opencl --enable-opengl --enable-sdl2 --enable-libdc1394 --enable-libdrm --enable-libiec61883 --enable-nvenc --enable-chromaprint --enable-frei0r --enable-libx264 --enable-shared
  WARNING: library configuration mismatch
  avcodec     configuration: --prefix=/usr --extra-version=1ubuntu0.1 --toolchain=hardened --libdir=/usr/lib/x86_64-linux-gnu --incdir=/usr/include/x86_64-linux-gnu --arch=amd64 --enable-gpl --disable-stripping --enable-avresample --disable-filter=resample --enable-avisynth --enable-gnutls --enable-ladspa --enable-libaom --enable-libass --enable-libbluray --enable-libbs2b --enable-libcaca --enable-libcdio --enable-libcodec2 --enable-libflite --enable-libfontconfig --enable-libfreetype --enable-libfribidi --enable-libgme --enable-libgsm --enable-libjack --enable-libmp3lame --enable-libmysofa --enable-libopenjpeg --enable-libopenmpt --enable-libopus --enable-libpulse --enable-librsvg --enable-librubberband --enable-libshine --enable-libsnappy --enable-libsoxr --enable-libspeex --enable-libssh --enable-libtheora --enable-libtwolame --enable-libvidstab --enable-libvorbis --enable-libvpx --enable-libwavpack --enable-libwebp --enable-libx265 --enable-libxml2 --enable-libxvid --enable-libzmq --enable-libzvbi --enable-lv2 --enable-omx --enable-openal --enable-opencl --enable-opengl --enable-sdl2 --enable-libdc1394 --enable-libdrm --enable-libiec61883 --enable-nvenc --enable-chromaprint --enable-frei0r --enable-libx264 --enable-shared --enable-version3 --disable-doc --disable-programs --enable-libaribb24 --enable-liblensfun --enable-libopencore_amrnb --enable-libopencore_amrwb --enable-libtesseract --enable-libvo_amrwbenc
  libavutil      56. 31.100 / 56. 31.100
  libavcodec     58. 54.100 / 58. 54.100
  libavformat    58. 29.100 / 58. 29.100
  libavdevice    58.  8.100 / 58.  8.100
  libavfilter     7. 57.100 /  7. 57.100
  libavresample   4.  0.  0 /  4.  0.  0
  libswscale      5.  5.100 /  5.  5.100
  libswresample   3.  5.100 /  3.  5.100
  libpostproc    55.  5.100 / 55.  5.100
Input #0, image2pipe, from 'pipe:':
  Duration: N/A, bitrate: N/A
    Stream #0:0: Video: ppm, rgb24, 320x240, 20 fps, 20 tbr, 20 tbn, 20 tbc
Stream mapping:
  Stream #0:0 -> #0:0 (ppm (native) -> h264 (libx264))
[libx264 @ 0x55ebf4123f40] using cpu capabilities: MMX2 SSE2Fast SSSE3 SSE4.2 AVX FMA3 BMI2 AVX2
[libx264 @ 0x55ebf4123f40] profile High, level 1.3
[libx264 @ 0x55ebf4123f40] 264 - core 155 r2917 0a84d98 - H.264/MPEG-4 AVC codec - Copyleft 2003-2018 - http://www.videolan.org/x264.html - options: cabac=1 ref=3 deblock=1:0:0 analyse=0x3:0x113 me=hex subme=7 psy=1 psy_rd=1.00:0.00 mixed_ref=1 me_range=16 chroma_me=1 trellis=1 8x8dct=1 cqm=0 deadzone=21,11 fast_pskip=1 chroma_qp_offset=-2 threads=7 lookahead_threads=1 sliced_threads=0 nr=0 decimate=1 interlaced=0 bluray_compat=0 constrained_intra=0 bframes=3 b_pyramid=2 b_adapt=1 b_bias=0 direct=1 weightb=1 open_gop=0 weightp=2 keyint=250 keyint_min=20 scenecut=40 intra_refresh=0 rc_lookahead=40 rc=abr mbtree=1 bitrate=400 ratetol=1.0 qcomp=0.60 qpmin=0 qpmax=69 qpstep=4 ip_ratio=1.40 aq=1:1.00
Output #0, mp4, to './mission_records/e84ed3f3-40ec-44cc-b5fe-755337d78bcd/video.mp4':
  Metadata:
    encoder         : Lavf58.29.100
    Stream #0:0: Video: h264 (libx264) (avc1 / 0x31637661), yuv420p, 320x240, q=-1--1, 400 kb/s, 20 fps, 10240 tbn, 20 tbc
    Metadata:
      encoder         : Lavc58.54.100 libx264
    Side data:
      cpb: bitrate max/min/avg: 0/0/400000 buffer size: 0 vbv_delay: -1
frame=   32 fps=0.0 q=0.0 size=       0kB time=00:00:00.00 bitrate=N/A speed=   0x    frame=   41 fps= 40 q=0.0 size=       0kB time=00:00:00.00 bitrate=N/A speed=   0x    frame=   50 fps= 32 q=0.0 size=       0kB time=00:00:00.00 bitrate=N/A speed=   0x    frame=   59 fps= 28 q=30.0 size=       0kB time=00:00:00.25 bitrate=   1.5kbits/s speed=0.121x    frame=   68 fps= 26 q=26.0 size=       0kB time=00:00:00.70 bitrate=   0.5kbits/s speed=0.267x    frame=   77 fps= 24 q=23.0 size=       0kB time=00:00:01.15 bitrate=   0.3kbits/s speed=0.364x    frame=   86 fps= 23 q=22.0 size=       0kB time=00:00:01.60 bitrate=   0.2kbits/s speed=0.437x    frame=   95 fps= 23 q=21.0 size=       0kB time=00:00:02.05 bitrate=   0.2kbits/s speed=0.489x    frame=  104 fps= 22 q=20.0 size=       0kB time=00:00:02.50 bitrate=   0.2kbits/s speed=0.53x    frame=  113 fps= 22 q=20.0 size=       0kB time=00:00:02.95 bitrate=   0.1kbits/s speed=0.566x    frame=  122 fps= 21 q=19.0 size=       0kB time=00:00:03.40 bitrate=   0.1kbits/s speed=0.593x    frame=  131 fps= 21 q=19.0 size=       0kB time=00:00:03.85 bitrate=   0.1kbits/s speed=0.616x    frame=  140 fps= 21 q=18.0 size=       0kB time=00:00:04.30 bitrate=   0.1kbits/s speed=0.637x    frame=  150 fps= 21 q=18.0 size=       0kB time=00:00:04.80 bitrate=   0.1kbits/s speed=0.66x    frame=  160 fps= 20 q=18.0 size=       0kB time=00:00:05.30 bitrate=   0.1kbits/s speed=0.676x    frame=  170 fps= 20 q=18.0 size=       0kB time=00:00:05.80 bitrate=   0.1kbits/s speed=0.692x    frame=  180 fps= 20 q=18.0 size=     256kB time=00:00:06.30 bitrate= 332.9kbits/s speed=0.707x    frame=  189 fps= 20 q=18.0 size=     256kB time=00:00:06.75 bitrate= 310.7kbits/s speed=0.715x    frame=  198 fps= 20 q=18.0 size=     256kB time=00:00:07.20 bitrate= 291.3kbits/s speed=0.721x    frame=  207 fps= 20 q=18.0 size=     256kB time=00:00:07.65 bitrate= 274.2kbits/s speed=0.728x    frame=  217 fps= 20 q=18.0 size=     256kB time=00:00:08.15 bitrate= 257.4kbits/s speed=0.737x    frame=  226 fps= 20 q=18.0 size=     256kB time=00:00:08.60 bitrate= 243.9kbits/s speed=0.743x    frame=  235 fps= 19 q=18.0 size=     256kB time=00:00:09.05 bitrate= 231.8kbits/s speed=0.749x    frame=  244 fps= 19 q=18.0 size=     256kB time=00:00:09.50 bitrate= 220.8kbits/s speed=0.754x    frame=  254 fps= 19 q=18.0 size=     256kB time=00:00:10.00 bitrate= 209.8kbits/s speed=0.763x    frame=  263 fps= 19 q=18.0 size=     256kB time=00:00:10.45 bitrate= 200.7kbits/s speed=0.768x    frame=  272 fps= 19 q=17.0 size=     256kB time=00:00:10.90 bitrate= 192.4kbits/s speed=0.771x    frame=  282 fps= 19 q=17.0 size=     256kB time=00:00:11.40 bitrate= 184.0kbits/s speed=0.777x    frame=  291 fps= 19 q=17.0 size=     512kB time=00:00:11.85 bitrate= 354.0kbits/s speed=0.78x    frame=  300 fps= 19 q=19.0 size=     512kB time=00:00:12.30 bitrate= 341.0kbits/s speed=0.782x    frame=  310 fps= 19 q=19.0 size=     512kB time=00:00:12.80 bitrate= 327.7kbits/s speed=0.787x    frame=  319 fps= 19 q=18.0 size=     512kB time=00:00:13.25 bitrate= 316.6kbits/s speed=0.789x    frame=  329 fps= 19 q=18.0 size=     512kB time=00:00:13.75 bitrate= 305.1kbits/s speed=0.793x    frame=  339 fps= 19 q=18.0 size=     512kB time=00:00:14.25 bitrate= 294.4kbits/s speed=0.795x    frame=  348 fps= 19 q=18.0 size=     512kB time=00:00:14.70 bitrate= 285.4kbits/s speed=0.798x    frame=  357 fps= 19 q=18.0 size=     512kB time=00:00:15.15 bitrate= 276.9kbits/s speed=0.799x    frame=  366 fps= 19 q=18.0 size=     512kB time=00:00:15.60 bitrate= 268.9kbits/s speed=0.801x    frame=  375 fps= 19 q=18.0 size=     512kB time=00:00:16.05 bitrate= 261.3kbits/s speed=0.803x    frame=  385 fps= 19 q=18.0 size=     768kB time=00:00:16.55 bitrate= 380.2kbits/s speed=0.805x    frame=  395 fps= 19 q=18.0 size=     768kB time=00:00:17.05 bitrate= 369.0kbits/s speed=0.808x    frame=  404 fps= 19 q=18.0 size=     768kB time=00:00:17.50 bitrate= 359.5kbits/s speed=0.809x    frame=  413 fps= 19 q=18.0 size=     768kB time=00:00:17.95 bitrate= 350.5kbits/s speed=0.811x    frame=  422 fps= 19 q=18.0 size=     768kB time=00:00:18.40 bitrate= 341.9kbits/s speed=0.811x    frame=  431 fps= 19 q=18.0 size=     768kB time=00:00:18.85 bitrate= 333.8kbits/s speed=0.812x    frame=  440 fps= 19 q=18.0 size=     768kB time=00:00:19.30 bitrate= 326.0kbits/s speed=0.813x    frame=  449 fps= 19 q=18.0 size=     768kB time=00:00:19.75 bitrate= 318.6kbits/s speed=0.814x    frame=  459 fps= 18 q=18.0 size=     768kB time=00:00:20.25 bitrate= 310.7kbits/s speed=0.816x    frame=  469 fps= 18 q=17.0 size=     768kB time=00:00:20.75 bitrate= 303.2kbits/s speed=0.818x    frame=  478 fps= 18 q=17.0 size=     768kB time=00:00:21.20 bitrate= 296.8kbits/s speed=0.82x    frame=  488 fps= 18 q=17.0 size=     768kB time=00:00:21.70 bitrate= 289.9kbits/s speed=0.822x    frame=  497 fps= 18 q=17.0 size=    1024kB time=00:00:22.15 bitrate= 378.7kbits/s speed=0.822x    frame=  506 fps= 18 q=17.0 size=    1024kB time=00:00:22.60 bitrate= 371.2kbits/s speed=0.823x    frame=  515 fps= 18 q=17.0 size=    1024kB time=00:00:23.05 bitrate= 363.9kbits/s speed=0.823x    frame=  519 fps= 18 q=-1.0 Lsize=    1235kB time=00:00:25.80 bitrate= 392.0kbits/s speed=0.911x    
video:1228kB audio:0kB subtitle:0kB other streams:0kB global headers:0kB muxing overhead: 0.548330%
[libx264 @ 0x55ebf4123f40] frame I:3     Avg QP:10.97  size: 25207
[libx264 @ 0x55ebf4123f40] frame P:156   Avg QP: 9.26  size:  5272
[libx264 @ 0x55ebf4123f40] frame B:360   Avg QP:15.19  size:   996
[libx264 @ 0x55ebf4123f40] consecutive B-frames:  4.0%  6.6% 11.6% 77.8%
[libx264 @ 0x55ebf4123f40] mb I  I16..4: 22.0% 27.8% 50.2%
[libx264 @ 0x55ebf4123f40] mb P  I16..4:  2.8%  0.8%  0.3%  P16..4: 55.4%  4.5% 10.4%  0.0%  0.0%    skip:25.7%
[libx264 @ 0x55ebf4123f40] mb B  I16..4:  0.1%  0.0%  0.0%  B16..8: 20.6%  2.1%  1.8%  direct: 5.4%  skip:70.1%  L0:45.3% L1:50.2% BI: 4.5%
[libx264 @ 0x55ebf4123f40] final ratefactor: 13.65
[libx264 @ 0x55ebf4123f40] 8x8 transform intra:22.0% inter:46.2%
[libx264 @ 0x55ebf4123f40] coded y,uvDC,uvAC intra: 43.9% 55.9% 49.5% inter: 18.7% 19.3% 13.3%
[libx264 @ 0x55ebf4123f40] i16 v,h,dc,p:  7% 70% 22%  0%
[libx264 @ 0x55ebf4123f40] i8 v,h,dc,ddl,ddr,vr,hd,vl,hu:  5% 26% 30%  6%  6%  3%  7%  6% 12%
[libx264 @ 0x55ebf4123f40] i4 v,h,dc,ddl,ddr,vr,hd,vl,hu: 10% 29% 17%  6%  8%  6%  8%  6% 11%
[libx264 @ 0x55ebf4123f40] i8c dc,h,v,p: 31% 63%  4%  2%
[libx264 @ 0x55ebf4123f40] Weighted P-Frames: Y:9.0% UV:0.6%
[libx264 @ 0x55ebf4123f40] ref P L0: 84.4%  3.9%  8.5%  3.1%  0.1%
[libx264 @ 0x55ebf4123f40] ref B L0: 90.3%  8.3%  1.4%
[libx264 @ 0x55ebf4123f40] ref B L1: 95.2%  4.8%
[libx264 @ 0x55ebf4123f40] kb/s:387.38
